<?xml version="1.0" encoding="utf-8"?>
<!-- Generator: Adobe Illustrator 21.0.2, SVG Export Plug-In . SVG Version: 6.00 Build 0)  -->
<svg version="1.1" id="Layer_1" xmlns="http://www.w3.org/2000/svg" xmlns:xlink="http://www.w3.org/1999/xlink" x="0px" y="0px"
	 viewBox="0 0 1366 150" style="enable-background:new 0 0 1366 150;" xml:space="preserve">
<style type="text/css">
	.st0{fill:#DEC9E2;}
	.st1{fill:#2B58DD;}
</style>
<g>
	<path class="st0" d="M1366,117c-222.6,40.3-396.5,30.9-516,14c-167.3-23.6-234.4-62.6-386-43c-81.2,10.5-148.3,32.8-277,37
		c-78.7,2.6-143.6-2.9-187-8C0,81.7,0,46.3,0,11h1366V117z"/>
</g>
<g>
	<path class="st1" d="M1366,106c-223,38.2-397.3,29.4-516,14C670.7,96.7,592,55,433,81c-59.3,9.7-130.4,29-246,33
		c-79.1,2.8-144.2-2.8-187-8C0,70.7,0,35.3,0,0h1366V106z"/>
</g>
<path class="st0" d="M511,293c-19.7-67-39.3-134-59-201"/>
</svg>
